# xmcd
#
# Track frame offsets: 
#        150
#        20472
#        37526
#        54214
#        71868
#        90298
#        99033
#        108981
#        122285
#        141466
#        157203
#        179489
#        209293
#        236921
#        258906
#        272209
#        286557
#        310882
#        324808
#
# Disc length: 4516 seconds
#
# Revision: 0
# Processed by: cddbd v1.5.2PL0 Copyright (c) Steve Scherf et al.
# Submitted via: ExactAudioCopyFreeDBPlugin 1.0
#
DISCID=f911a213
DTITLE=Willy Deville - Collected CD3
DYEAR=2015
DGENRE=Blues
TTITLE0=Carmelita [Live in Stockholm]
TTITLE1=Willy DeVille Acoustic Trio - Let It Be Me [Live in Berlin]
TTITLE2=You’ll Never Know
TTITLE3=Willy DeVille en Celtas Cortos - Cuentame un Cuento
TTITLE4=Willy DeVille en Polo Hofer - Who’s Gonna Shoe Your Pretty Lit
TTITLE4=tle Foot
TTITLE5=Pullin’ My String
TTITLE6=It’s So Easy
TTITLE7=Heat of the Moment
TTITLE8=I Call Your Name [Original Recording]
TTITLE9=Pride and Joy
TTITLE10=Dust My Broom
TTITLE11=Assassin of Love [Extended Version]
TTITLE12=Italian Shoes [Remix]
TTITLE13=I Must Be Dreaming [Remix]
TTITLE14=Hard Time [2 Meter Sessie]
TTITLE15=Well It’s True So True [2 Meter Sessie]
TTITLE16=I’m in the Mood [2 Meter Sessie]
TTITLE17=Early Morning Blues [2 Meter Sessie]
TTITLE18=Who’s Gonna Shoe Your Pretty Little Foot [2 Meter Sessie]
EXTD=
EXTT0=
EXTT1=
EXTT2=
EXTT3=
EXTT4=
EXTT5=
EXTT6=
EXTT7=
EXTT8=
EXTT9=
EXTT10=
EXTT11=
EXTT12=
EXTT13=
EXTT14=
EXTT15=
EXTT16=
EXTT17=
EXTT18=
PLAYORDER=
